{"title":"Il Nemico Invisibile (2014) 720p x264 AAC ITA SUB ITA ENG","uid":12776349,"size":2907860303,"categoryP":"video","categoryS":"hd___movies","magnet":"?xt=urn:btih:d01e519b1284e862dd40ed6de56f3cf0535aaca8&amp;dn=Il+Nemico+Invisibile+%282014%29+720p+x264+AAC+ITA+SUB+ITA+ENG&amp;tr=udp%3A%2F%2Ftracker.leechers-paradise.org%3A6969&amp;tr=udp%3A%2F%2Fzer0day.ch%3A1337&amp;tr=udp%3A%2F%2Fopen.demonii.com%3A1337&amp;tr=udp%3A%2F%2Ftracker.coppersurfer.tk%3A6969&amp;tr=udp%3A%2F%2Fexodus.desync.com%3A6969","seeders":0,"leechers":1,"uploader":"xtron197777","files":1,"time":1447743083,"description":"Il Nemico Invisibile (2014)\r\n \nhttp://i.imgur.com/VjdGDjT.jpg\r\n\r\n-: Cast :-\r\n\r\nNicolas Cage: Evan Lake\r\nAnton Yelchin: Milton Schultz\r\nAlexander Karim: Muhammad Banir\r\nIrène Jacob: Michelle Zuberain\r\nAdetomiwa Edun: Mbui\r\nAymen Hamdouchi: Aasim\r\nRobert G. Slade: James Clifton\r\nGeff Francis: dott. Clayborne\r\nSerban Celea: dott. Iulian Cornel\r\n\r\n-: Trama :-\r\n\r\nIl veterano della CIA Evan Lake è al termine della carriera, stretto tra la propria convinzione dell'esistenza in vita di un suo antico avversario, il terrorista Banir, creduto da tutti morto anni prima e i vertici dell'Agenzia che considerano questa credenza una conseguenza della patologia degenerativa di carattere neurologico cui il protagonista è affetto. Un suo collega giovane e amico, Milton Schultz, scopre però una pista che può confermare l'esistenza in vita di Banir e da qui prende avvio la caccia privata di Lake e Milton tra Romania e Kenia al fine di eliminare il nemico giurato.\r\n\r\n-: Info :-\r\nGeneral \r\nFormat profile : Base Media \r\nCodec ID : isom \r\nFile size : 2.71 GiB \r\nDuration : 1h 34mn \r\nOverall bit rate : 4 120 Kbps \r\nEncoded date : UTC 2015-09-20 21:30:00 \r\nTagged date : UTC 2015-09-20 21:30:00 \r\nWriting application : Lavf57.3.100 \r\n\r\nVideo \r\nID : 1 \r\nFormat : AVC \r\nFormat/Info : Advanced Video Codec \r\nFormat profile :    \r\nFormat settings, CABAC : Yes \r\nFormat settings, ReFrames : 5 frames \r\nCodec ID : avc1 \r\nCodec ID/Info : Advanced Video Coding \r\nDuration : 1h 34mn \r\nBit rate : 3 823 Kbps \r\nWidth : 1 280 pixels \r\nHeight : 544 pixels \r\nDisplay aspect ratio : 2.35:1 \r\nFrame rate mode : Variable \r\nFrame rate : 23.976 fps \r\nMinimum frame rate : 23.564 fps \r\nMaximum frame rate : 24.390 fps \r\nColor space : YUV \r\nChroma subsampling : 4:2:0 \r\nBit depth : 8 bits \r\nScan type : Progressive \r\nBits/(Pixel*Frame) : 0.229 \r\nStream size : 2.62 GiB (97%) \r\nWriting library : x264 core 148 r2597 e86f3a1 \r\nEncoding settings : cabac=1 / ref=6 / deblock=1:-1:-1 / analyse=0x3:0x133 / me=umh / subme=10 / psy=1 / psy_rd=1.00:0.15 / mixed_ref=1 / me_range=24 / chroma_me=1 / trellis=2 / 8x8dct=1 / cqm=0 / deadzone=21,11 / fast_pskip=1 / chroma_qp_offset=-3 / threads=12 / lookahead_threads=1 / sliced_threads=0 / nr=0 / decimate=1 / interlaced=0 / bluray_compat=1 / constrained_intra=0 / bframes=3 / b_pyramid=1 / b_adapt=2 / b_bias=0 / direct=3 / weightb=1 / open_gop=0 / weightp=1 / keyint=250 / keyint_min=1 / scenecut=40 / intra_refresh=0 / rc_lookahead=60 / rc=2pass / mbtree=1 / bitrate=3823 / qpmin=0 / qpmax=69 / qpstep=4 / ip_ratio=1.40 / aq=3:1.0 / 0 \r\nEncoded date : UTC 2015-09-20 21:30:00 \r\nTagged date : UTC 2015-09-20 21:30:00 \r\nColor range : Limited \r\nMatrix coefficients : BT.709 \r\n\r\nAudio \r\nID : 2 \r\nFormat : AAC \r\nFormat/Info : Advanced Audio Codec \r\nFormat profile : LC \r\nCodec ID : 40 \r\nDuration : 1h 34mn \r\nBit rate mode : Constant \r\nBit rate : 128 Kbps \r\nChannel(s) : 2 channels \r\nChannel positions : Front: L R \r\nSampling rate : 48.0 KHz \r\nCompression mode : Lossy \r\nStream size : 86.2 MiB (3%) \r\nEncoded date : UTC 2015-09-20 21:30:00 \r\nTagged date : UTC 2015-09-20 21:30:00","torrent":{"xt":"urn:btih:d01e519b1284e862dd40ed6de56f3cf0535aaca8","amp;dn":"Il+Nemico+Invisibile+%282014%29+720p+x264+AAC+ITA+SUB+ITA+ENG","amp;tr":["udp%3A%2F%2Ftracker.leechers-paradise.org%3A6969","udp%3A%2F%2Fzer0day.ch%3A1337","udp%3A%2F%2Fopen.demonii.com%3A1337","udp%3A%2F%2Ftracker.coppersurfer.tk%3A6969","udp%3A%2F%2Fexodus.desync.com%3A6969"],"infoHash":"d01e519b1284e862dd40ed6de56f3cf0535aaca8","infoHashBuffer":{"type":"Buffer","data":[208,30,81,155,18,132,232,98,221,64,237,109,229,111,60,240,83,90,172,168]},"announce":[],"urlList":[]}}